<svg id="Camada_1" data-name="Camada 1" xmlns="http://www.w3.org/2000/svg" xmlns:xlink="http://www.w3.org/1999/xlink" viewBox="0 0 433.95 319.07"><defs><style>.cls-1{fill:url(#Roxito);}.cls-2{fill:url(#Roxito-2);}.cls-3{fill:#fff;opacity:0.63;}.cls-4{fill:url(#Blue);}.cls-5{fill:url(#Blue-2);}.cls-6{fill:url(#Blue-3);}.cls-7{fill:url(#Blue-4);}.cls-8{fill:url(#Blue-5);}.cls-9{fill:url(#Blue-6);}.cls-10{fill:url(#Blue-7);}.cls-11{fill:url(#Blue-8);}.cls-12{fill:url(#Blue-9);}.cls-13{fill:url(#Blue-10);}.cls-14{fill:url(#Blue-11);}.cls-15{fill:url(#Blue-12);}.cls-16{fill:url(#Blue-13);}.cls-17{fill:url(#Blue-14);}.cls-18{fill:url(#Blue-15);}.cls-19{fill:url(#Blue-16);}.cls-20{fill:url(#Blue-17);}.cls-21{fill:url(#Blue-18);}.cls-22{fill:url(#Blue-19);}.cls-23{fill:url(#Blue-20);}.cls-24{fill:url(#Blue-21);}</style><linearGradient id="Roxito" x1="21.26" y1="196.14" x2="229.52" y2="196.14" gradientUnits="userSpaceOnUse"><stop offset="0" stop-color="#f926ff"/><stop offset="1" stop-color="#3d0b95"/></linearGradient><linearGradient id="Roxito-2" x1="33.71" y1="143.71" x2="412.7" y2="143.71" xlink:href="#Roxito"/><linearGradient id="Blue" x1="145.27" y1="104.69" x2="160.76" y2="104.69" gradientUnits="userSpaceOnUse"><stop offset="0" stop-color="#1c68f9"/><stop offset="1" stop-color="#61feff"/></linearGradient><linearGradient id="Blue-2" x1="192.77" y1="87.67" x2="202.36" y2="87.67" xlink:href="#Blue"/><linearGradient id="Blue-3" x1="266.59" y1="129.45" x2="276.17" y2="129.45" xlink:href="#Blue"/><linearGradient id="Blue-4" x1="234.31" y1="66.92" x2="242.35" y2="66.92" xlink:href="#Blue"/><linearGradient id="Blue-5" x1="264.21" y1="184.63" x2="273.8" y2="184.63" xlink:href="#Blue"/><linearGradient id="Blue-6" x1="224.22" y1="159.54" x2="233.22" y2="159.54" xlink:href="#Blue"/><linearGradient id="Blue-7" x1="232.17" y1="93.49" x2="241.76" y2="93.49" xlink:href="#Blue"/><linearGradient id="Blue-8" x1="246.39" y1="162.09" x2="261.88" y2="162.09" xlink:href="#Blue"/><linearGradient id="Blue-9" x1="197.57" y1="60.57" x2="202.26" y2="60.57" xlink:href="#Blue"/><linearGradient id="Blue-10" x1="180.12" y1="111.6" x2="184.82" y2="111.6" xlink:href="#Blue"/><linearGradient id="Blue-11" x1="239.41" y1="130.71" x2="244.11" y2="130.71" xlink:href="#Blue"/><linearGradient id="Blue-12" x1="257.68" y1="106.35" x2="262.38" y2="106.35" xlink:href="#Blue"/><linearGradient id="Blue-13" x1="262.38" y1="84.75" x2="267.08" y2="84.75" xlink:href="#Blue"/><linearGradient id="Blue-14" x1="283.98" y1="111.6" x2="288.68" y2="111.6" xlink:href="#Blue"/><linearGradient id="Blue-15" x1="278.76" y1="154.43" x2="283.46" y2="154.43" xlink:href="#Blue"/><linearGradient id="Blue-16" x1="239.41" y1="183.38" x2="244.11" y2="183.38" xlink:href="#Blue"/><linearGradient id="Blue-17" x1="215.24" y1="107.91" x2="222.55" y2="107.91" xlink:href="#Blue"/><linearGradient id="Blue-18" x1="166.68" y1="76.45" x2="173.99" y2="76.45" xlink:href="#Blue"/><linearGradient id="Blue-19" x1="12.62" y1="103.94" x2="421.33" y2="103.94" xlink:href="#Blue"/><linearGradient id="Blue-20" x1="59.61" y1="189.57" x2="332.06" y2="189.57" xlink:href="#Blue"/><linearGradient id="Blue-21" x1="53.05" y1="232.4" x2="401.62" y2="232.4" xlink:href="#Blue"/></defs><title>logo</title><path class="cls-1" d="M21.26,168.32A106.82,106.82,0,0,0,79.5,260.74s-32.05-29.21-37-64.85a68.36,68.36,0,0,0,5.76,14c34.8,63.28,161.57,50.86,181.25,48.72-24.66-3.42-63-12.44-100.1-38.53-13.29-9.35-34-26.19-49.43-52.37-10.2-17.28-8.87-36.58-12.53-36.41-2.59.12-4.31,9.31-5.39,17.57L49.74,173.31Z"/><path class="cls-2" d="M290.55,28.43L33.71,170.26c22.36,50.52,96.63,88,185.11,88.73,106.55,0.84,193.35-52,193.87-118.09C413.09,90.13,362.4,46.35,290.55,28.43Z"/><path class="cls-3" d="M198.09,54.52c-23.72-1.06-45.87,4.05-63.94,13.55a139.81,139.81,0,0,1,43.18-4.67c57.9,2.59,103.33,38.52,101.46,80.24s-50.32,73.44-108.23,70.85q-4.25-.19-8.4-0.62a133.92,133.92,0,0,0,28.59,4.37c58.16,2.61,106.95-31.93,109-77.15S256.25,57.12,198.09,54.52Z"/><path class="cls-4" d="M152.75,112.34s-0.76-7.26,8-7.36c0,0-7.94.61-8-8,0,0,1,8.08-7.53,8C145.27,105,152.75,104.81,152.75,112.34Z"/><path class="cls-5" d="M197.73,82.93s0.47,4.49-5,4.55a4.54,4.54,0,0,1,4.93,4.93s-0.61-5,4.66-5C202.36,87.45,197.73,87.6,197.73,82.93Z"/><path class="cls-6" d="M271.54,124.71s0.47,4.49-5,4.55a4.54,4.54,0,0,1,4.93,4.93s-0.61-5,4.66-5C276.17,129.22,271.54,129.37,271.54,124.71Z"/><path class="cls-7" d="M238.47,62.95s0.39,3.77-4.16,3.82a3.81,3.81,0,0,1,4.13,4.13,3.62,3.62,0,0,1,3.91-4.16S238.47,66.86,238.47,62.95Z"/><path class="cls-8" d="M269.17,179.89s0.47,4.49-5,4.55a4.54,4.54,0,0,1,4.93,4.93s-0.61-5,4.66-5C273.8,184.41,269.17,184.55,269.17,179.89Z"/><path class="cls-9" d="M228.88,155.09s0.44,4.22-4.66,4.28a4.26,4.26,0,0,1,4.62,4.62s-0.58-4.69,4.38-4.66C233.22,159.33,228.88,159.47,228.88,155.09Z"/><path class="cls-10" d="M237.13,88.75s0.47,4.49-5,4.55a4.54,4.54,0,0,1,4.93,4.93s-0.61-5,4.66-5C241.76,93.27,237.13,93.41,237.13,88.75Z"/><path class="cls-11" d="M253.87,169.74s-0.76-7.26,8-7.36c0,0-7.94.61-8-8,0,0,1,8.08-7.53,8C246.39,162.45,253.87,162.21,253.87,169.74Z"/><path class="cls-12" d="M202.26,60.65S200,60.89,200,58.2a2.25,2.25,0,0,1-2.44,2.44A2.14,2.14,0,0,1,200,62.95,2.17,2.17,0,0,1,202.26,60.65Z"/><path class="cls-13" d="M184.82,111.68s-2.23.23-2.26-2.46a2.25,2.25,0,0,1-2.44,2.44,2.14,2.14,0,0,1,2.46,2.31A2.17,2.17,0,0,1,184.82,111.68Z"/><path class="cls-14" d="M244.11,130.79s-2.23.23-2.26-2.46a2.25,2.25,0,0,1-2.44,2.44,2.14,2.14,0,0,1,2.46,2.31A2.17,2.17,0,0,1,244.11,130.79Z"/><path class="cls-15" d="M262.38,106.43s-2.23.23-2.26-2.46a2.25,2.25,0,0,1-2.44,2.44,2.14,2.14,0,0,1,2.46,2.31A2.17,2.17,0,0,1,262.38,106.43Z"/><path class="cls-16" d="M267.08,84.83s-2.23.23-2.26-2.46a2.25,2.25,0,0,1-2.44,2.44,2.14,2.14,0,0,1,2.46,2.31A2.17,2.17,0,0,1,267.08,84.83Z"/><path class="cls-17" d="M288.68,111.68s-2.23.23-2.26-2.46a2.25,2.25,0,0,1-2.44,2.44,2.14,2.14,0,0,1,2.46,2.31A2.17,2.17,0,0,1,288.68,111.68Z"/><path class="cls-18" d="M283.46,154.51s-2.23.23-2.26-2.46a2.25,2.25,0,0,1-2.44,2.44,2.14,2.14,0,0,1,2.46,2.31A2.17,2.17,0,0,1,283.46,154.51Z"/><path class="cls-19" d="M244.11,183.47s-2.23.23-2.26-2.46a2.25,2.25,0,0,1-2.44,2.44,2.14,2.14,0,0,1,2.46,2.31A2.17,2.17,0,0,1,244.11,183.47Z"/><path class="cls-20" d="M222.55,108s-3.46.36-3.51-3.82a3.5,3.5,0,0,1-3.8,3.8,3.32,3.32,0,0,1,3.82,3.59A3.37,3.37,0,0,1,222.55,108Z"/><path class="cls-21" d="M174,76.58s-3.46.36-3.51-3.82a3.5,3.5,0,0,1-3.8,3.8,3.32,3.32,0,0,1,3.82,3.59A3.37,3.37,0,0,1,174,76.58Z"/><path class="cls-22" d="M64.43,184.53S177.1,95.7,202.92,82.89c0,0,47.53-31.33,92.92-38.09,0,0,49-12.82,125.49,40.41,0,0-62.66-69.24-120.51-74.76,0,0-70-9.79-117.48,27.59,0,0,3.2-8.72,22.43-18.87,0,0-28.66,10.68-43.79,26.7,0,0,10.32-16.73,25.81-23.85,0,0-39,11-69.6,49.49,0,0,1.78-16.91,36.14-40.59,0,0-38.09,12.64-55,56.25,0,0,0-27.77,17.44-42.54,0,0-30.08,27.95-38.27,71.2,0,0,1.78-25.81,13.71-45.93,0,0-9.26,10-13.88,39,0,0,1.07-38.27,31-68.18,0,0-47,33.11-44.86,93.45,0,0-5.7-36,16.91-69.42a72.33,72.33,0,0,0-17.55,38.63s4.73-30.26,18.8-47.71c0,0-28.3,28.3-30.8,69.24,0,0-1.42-30.8,10.5-49,0,0-18.33,24-12.1,70.13,0,0-7.48-36.49,6.59-70.13,0,0-22.25,30.8-15,83.49,0,0-6.23-18.33-3-43.61,0,0-5.34,21.36,1.07,43.08,0,0-10.15-30.53-1.07-62,0,0-12.28,19.63-7.48,57.72,0,0-4.63-10.86-2.85-37.56,0,0-4.2,18.51-.41,34.53,0,0-7.14-24-1.58-45.93,0,0-11.54,31.33-3.88,55.72,0,0-5-7.65-4.81-31.51,0,0-3.56,21.72,6.59,42,0,0-6.23-6.76-9.08-24.56,0,0,1.25,26.35,9.61,39.34,0,0-8.37-5.7-12.28-26,0,0-.53,18,8.37,31,0,0,3.38,5.52,13.53,6.94C34.52,198.59,45.2,199.55,64.43,184.53Z"/><path class="cls-23" d="M279.75,187.18S251.62,158.35,262.3,132c0,0,7-15.07,24.92-8.54,0,0,6.53,2.61,9,11.27,0,0,6.29-13.41,22.55-9.73,0,0,18.39,4.87,11.87,25.28,0,0-12.94,42.13-58.86,57.08,0,0-37.38,10.68-61.35,11.27,0,0-50.91,2.73-53.4,3.32,0,0-38.45,1.9-66.69,13.65,0,0-20.06,8.9-30.74,21.72,0,0,18.75-29.67,72.39-40.7,0,0,69.29-10.09,86-11.27S272.39,195.49,279.75,187.18Z"/><path class="cls-24" d="M53,276.33s15.58-13.17,26.88-14.77c0,0,7.48,20.47,30.26,31.77,0,0-21.63-14.6-22.16-30.8a60,60,0,0,0,27.86,28.66S97.19,277.75,96.75,266.8c0,0-.27,3.74,11.57,14,0,0-9.26-13.35-9.26-18.69,0,0,7,19,29.28,30.62,0,0-16.29-11.48-19.85-24.56a86.64,86.64,0,0,0,11.57,13.62s-9-10.5-8.28-17.36c0,0,11.66,24.56,30.53,32.84,0,0-19.58-15.93-21-26.88,0,0,3.74,8.19,15.84,18.25,0,0-9.08-10.86-11-19.4A66.92,66.92,0,0,0,151.4,295s-20.65-18.16-19.31-28.48A81.71,81.71,0,0,0,152,292.17s-13-14.77-13.8-24.74c0,0,11,22.7,30.62,32.84,0,0-15.13-9.88-17.8-21.89,0,0,1.42,5.7,13.08,15.66a25.35,25.35,0,0,1-6.94-16.29s7.74,19.58,21,27.59c0,0-13.53-10.24-13.62-25.81,0,0,6.94,13.71,9.17,15.13,0,0-7.21-10.24-6.23-16,0,0,7.74,15.13,20.2,23.59,0,0-13.88-13.88-14.69-22,0,0,4.63,7.39,7.39,9.61,0,0-8.54-12.46-8.37-16.38,0,0,10.06,15.58,21.89,26.17,0,0-13.44-15.58-13.53-19.4,0,0,6.76,6.5,12.82,11.39,0,0-4.54-4-5.87-9.35,0,0,15.4,16.38,25.37,22.16,0,0-19.22-16.91-20.83-22.34a93.27,93.27,0,0,0,10.41,6.41s-4.45-4.54-5.87-7.74c0,0,21.27,19.49,30,23.94,0,0-20.47-16-21.09-19,0,0,7.83,5.79,13.88,9.26,0,0-10.68-7.74-12.19-11.57,0,0,12.82,10.41,20.38,14.15,0,0-9.95-9.43-11.16-13.44a258,258,0,0,0,21.84,20.56s-17.71-16.91-19-21.27c0,0,14.24,15.31,20,19.31,0,0-11.3-12-13.08-16.38,0,0,22.61,19.31,34.71,23.41,0,0-26.52-18.07-27.59-22.78,0,0,15,12,21.18,15.22,0,0-14.77-11.21-16.64-15.58,0,0,24.48,16.55,33.82,18.69,0,0-28.84-16.38-31.06-22,0,0,23.41,14.6,31.86,16.55,0,0-38.45-22.43-42-33.47,0,0,33.11,29.73,63.46,40.76,0,0-21.18-11.57-24.21-14.69,0,0,1.87,1.34,8,2.23,0,0-12.55-7.3-14.69-10.5,0,0,12.82,7.48,19.49,9.88,0,0-5.79-2.49-8.1-5.25,0,0,20.56,9.79,28.13,11.93,0,0-20.56-11.39-21.89-13.08,0,0,.36.09,3.65,1.34s-8.37-5.79-9.61-6.76c0,0,14,7.3,20.83,9.43,0,0-24.39-14.6-27.24-19,0,0,34,19.49,49.49,19.94,0,0-35.6-11.84-44.5-28.93,0,0,31.83,27,57.47,23.65,0,0-31.69-8.07-39-17.21,0,0,15.55,8.54,31.92,8.78,0,0-27.53-8.54-40.35-22.19,0,0,36.79,24.56,71,19.58,0,0-29.67-2.85-47.82-17.44,0,0,33.35,15.78,58.74,9.61,0,0-29.07-.24-51.86-14.36,0,0,38.33,13.41,67.29,4.39,0,0-31,6.88-70.37-13.53,0,0,59.45,19.11,89.36-3.32,0,0-31.57,12.1-72.15,2,0,0,45,7.24,74.41-8.9,0,0-34.18,11.51-64.68,5,0,0,43.32.12,56.13-10.44,0,0-35.13,9.14-48.42,6.53,0,0,26.7-.24,39.52-15.07,0,0-40.11,15.31-69.9,8.19,0,0,46.52,3,70-15,0,0-22.19,11-43.79,10.8,0,0,22.19-5.22,31-19.11,0,0-14,12.34-34.18,13.65,0,0,26.58-9.38,35.84-22.78a72.74,72.74,0,0,1-30,14.48s10-8.31,11.51-15.07c0,0-10.56,12.1-33.82,17.21,0,0,24.68-3.92,34.41-24.8a57.91,57.91,0,0,1-32.63,20.17s10.32-3.8,17.44-9.73c0,0-15.55,8.31-26.82,9.14,0,0,20.06-4.15,28.6-16.26,0,0-20.53,13.29-34.65,13.77,0,0,23.62-22.67,26.35-50.44,0,0-17.92,42.37-52.57,55.18-6.8,2.3-14.08,4.49-21.81,6.48a311.86,311.86,0,0,1-39.55,7.52s-79.15,5.22-82.24,6.29c0,0-30.14,2.37-57.67,16.73C79.66,247.22,60.73,258.56,53,276.33Z"/></svg>