<svg id="Camada_1" data-name="Camada 1" xmlns="http://www.w3.org/2000/svg" xmlns:xlink="http://www.w3.org/1999/xlink" viewBox="0 0 416.18 306.01"><defs><style>.cls-1{fill:url(#Roxito);}.cls-2{fill:url(#Roxito-2);}.cls-3{fill:#fff;opacity:0.63;}.cls-4{fill:url(#Blue);}.cls-5{fill:url(#Blue-2);}.cls-6{fill:url(#Blue-3);}.cls-7{fill:url(#Blue-4);}.cls-8{fill:url(#Blue-5);}.cls-9{fill:url(#Blue-6);}.cls-10{fill:url(#Blue-7);}.cls-11{fill:url(#Blue-8);}.cls-12{fill:url(#Blue-9);}.cls-13{fill:url(#Blue-10);}.cls-14{fill:url(#Blue-11);}.cls-15{fill:url(#Blue-12);}.cls-16{fill:url(#Blue-13);}.cls-17{fill:url(#Blue-14);}.cls-18{fill:url(#Blue-15);}.cls-19{fill:url(#Blue-16);}.cls-20{fill:url(#Blue-17);}.cls-21{fill:url(#Blue-18);}.cls-22{fill:url(#Blue-19);}.cls-23{fill:url(#Blue-20);}.cls-24{fill:url(#Blue-21);}</style><linearGradient id="Roxito" x1="18.46" y1="189.61" x2="226.73" y2="189.61" gradientUnits="userSpaceOnUse"><stop offset="0" stop-color="#f926ff"/><stop offset="1" stop-color="#3d0b95"/></linearGradient><linearGradient id="Roxito-2" x1="30.91" y1="137.18" x2="409.9" y2="137.18" xlink:href="#Roxito"/><linearGradient id="Blue" x1="252.9" y1="98.15" x2="268.38" y2="98.15" gradientUnits="userSpaceOnUse"><stop offset="0" stop-color="#1c68f9"/><stop offset="1" stop-color="#61feff"/></linearGradient><linearGradient id="Blue-2" x1="300.4" y1="81.14" x2="309.99" y2="81.14" xlink:href="#Blue"/><linearGradient id="Blue-3" x1="374.21" y1="122.91" x2="383.8" y2="122.91" xlink:href="#Blue"/><linearGradient id="Blue-4" x1="341.93" y1="60.39" x2="349.98" y2="60.39" xlink:href="#Blue"/><linearGradient id="Blue-5" x1="371.84" y1="178.1" x2="381.43" y2="178.1" xlink:href="#Blue"/><linearGradient id="Blue-6" x1="331.85" y1="153" x2="340.85" y2="153" xlink:href="#Blue"/><linearGradient id="Blue-7" x1="339.8" y1="86.96" x2="349.38" y2="86.96" xlink:href="#Blue"/><linearGradient id="Blue-8" x1="354.02" y1="155.56" x2="369.5" y2="155.56" xlink:href="#Blue"/><linearGradient id="Blue-9" x1="305.19" y1="54.04" x2="309.89" y2="54.04" xlink:href="#Blue"/><linearGradient id="Blue-10" x1="287.75" y1="105.07" x2="292.45" y2="105.07" xlink:href="#Blue"/><linearGradient id="Blue-11" x1="347.03" y1="124.18" x2="351.73" y2="124.18" xlink:href="#Blue"/><linearGradient id="Blue-12" x1="365.31" y1="99.82" x2="370.01" y2="99.82" xlink:href="#Blue"/><linearGradient id="Blue-13" x1="370.01" y1="78.22" x2="374.71" y2="78.22" xlink:href="#Blue"/><linearGradient id="Blue-14" x1="391.61" y1="105.07" x2="396.3" y2="105.07" xlink:href="#Blue"/><linearGradient id="Blue-15" x1="386.39" y1="147.9" x2="391.08" y2="147.9" xlink:href="#Blue"/><linearGradient id="Blue-16" x1="347.03" y1="176.85" x2="351.73" y2="176.85" xlink:href="#Blue"/><linearGradient id="Blue-17" x1="322.86" y1="101.38" x2="330.17" y2="101.38" xlink:href="#Blue"/><linearGradient id="Blue-18" x1="274.31" y1="69.92" x2="281.61" y2="69.92" xlink:href="#Blue"/><linearGradient id="Blue-19" x1="3.74" y1="97.41" x2="412.45" y2="97.41" xlink:href="#Blue"/><linearGradient id="Blue-20" x1="50.73" y1="183.04" x2="323.18" y2="183.04" xlink:href="#Blue"/><linearGradient id="Blue-21" x1="44.17" y1="225.87" x2="392.73" y2="225.87" xlink:href="#Blue"/></defs><title>logo</title><path class="cls-1" d="M18.46,161.79A106.82,106.82,0,0,0,76.7,254.21s-32.05-29.21-37-64.85a68.36,68.36,0,0,0,5.76,14c34.8,63.28,161.57,50.86,181.25,48.72-24.66-3.42-63-12.44-100.1-38.53-13.29-9.35-34-26.19-49.43-52.37-10.2-17.28-8.87-36.58-12.53-36.41-2.59.12-4.31,9.31-5.39,17.57L46.94,166.78Z"/><path class="cls-2" d="M287.75,21.9L30.91,163.73c22.36,50.52,96.63,88,185.11,88.73,106.55,0.84,193.35-52,193.87-118.09C410.29,83.6,359.61,39.82,287.75,21.9Z"/><path class="cls-3" d="M281.52,48C257.8,46.92,235.64,52,217.58,61.53a139.81,139.81,0,0,1,43.18-4.67c57.9,2.59,103.33,38.52,101.46,80.24S311.9,210.55,254,208q-4.25-.19-8.4-0.62a133.92,133.92,0,0,0,28.59,4.37c58.16,2.61,106.95-31.93,109-77.15S339.67,50.59,281.52,48Z"/><path class="cls-4" d="M260.37,105.81s-0.76-7.26,8-7.36c0,0-7.94.61-8-8,0,0,1,8.08-7.53,8C252.9,98.51,260.37,98.27,260.37,105.81Z"/><path class="cls-5" d="M305.36,76.4s0.47,4.49-5,4.55a4.54,4.54,0,0,1,4.93,4.93s-0.61-5,4.66-5C310,80.92,305.36,81.07,305.36,76.4Z"/><path class="cls-6" d="M379.17,118.17s0.47,4.49-5,4.55a4.54,4.54,0,0,1,4.93,4.93s-0.61-5,4.66-5C383.8,122.69,379.17,122.84,379.17,118.17Z"/><path class="cls-7" d="M346.09,56.42s0.39,3.77-4.16,3.82a3.81,3.81,0,0,1,4.13,4.13A3.62,3.62,0,0,1,350,60.21S346.09,60.33,346.09,56.42Z"/><path class="cls-8" d="M376.8,173.36s0.47,4.49-5,4.55a4.54,4.54,0,0,1,4.93,4.93s-0.61-5,4.66-5C381.43,177.87,376.8,178,376.8,173.36Z"/><path class="cls-9" d="M336.5,148.55s0.44,4.22-4.66,4.28a4.26,4.26,0,0,1,4.62,4.62s-0.58-4.69,4.38-4.66C340.85,152.8,336.5,152.93,336.5,148.55Z"/><path class="cls-10" d="M344.76,82.22s0.47,4.49-5,4.55a4.54,4.54,0,0,1,4.93,4.93s-0.61-5,4.66-5C349.38,86.73,344.76,86.88,344.76,82.22Z"/><path class="cls-11" d="M361.49,163.21s-0.76-7.26,8-7.36c0,0-7.94.61-8-8,0,0,1,8.08-7.53,8C354,155.91,361.49,155.67,361.49,163.21Z"/><path class="cls-12" d="M309.89,54.12s-2.23.23-2.26-2.46a2.25,2.25,0,0,1-2.44,2.44,2.14,2.14,0,0,1,2.46,2.31A2.17,2.17,0,0,1,309.89,54.12Z"/><path class="cls-13" d="M292.45,105.15s-2.23.23-2.26-2.46a2.25,2.25,0,0,1-2.44,2.44,2.14,2.14,0,0,1,2.46,2.31A2.17,2.17,0,0,1,292.45,105.15Z"/><path class="cls-14" d="M351.73,124.26s-2.23.23-2.26-2.46a2.25,2.25,0,0,1-2.44,2.44,2.14,2.14,0,0,1,2.46,2.31A2.17,2.17,0,0,1,351.73,124.26Z"/><path class="cls-15" d="M370,99.9s-2.23.23-2.26-2.46a2.25,2.25,0,0,1-2.44,2.44,2.14,2.14,0,0,1,2.46,2.31A2.17,2.17,0,0,1,370,99.9Z"/><path class="cls-16" d="M374.71,78.3s-2.23.23-2.26-2.46A2.25,2.25,0,0,1,370,78.29a2.14,2.14,0,0,1,2.46,2.31A2.17,2.17,0,0,1,374.71,78.3Z"/><path class="cls-17" d="M396.3,105.15s-2.23.23-2.26-2.46a2.25,2.25,0,0,1-2.44,2.44,2.14,2.14,0,0,1,2.46,2.31A2.17,2.17,0,0,1,396.3,105.15Z"/><path class="cls-18" d="M391.08,148s-2.23.23-2.26-2.46a2.25,2.25,0,0,1-2.44,2.44,2.14,2.14,0,0,1,2.46,2.31A2.17,2.17,0,0,1,391.08,148Z"/><path class="cls-19" d="M351.73,176.94s-2.23.23-2.26-2.46a2.25,2.25,0,0,1-2.44,2.44,2.14,2.14,0,0,1,2.46,2.31A2.17,2.17,0,0,1,351.73,176.94Z"/><path class="cls-20" d="M330.17,101.5s-3.46.36-3.51-3.82a3.5,3.5,0,0,1-3.8,3.8,3.32,3.32,0,0,1,3.82,3.59A3.37,3.37,0,0,1,330.17,101.5Z"/><path class="cls-21" d="M281.61,70s-3.46.36-3.51-3.82a3.5,3.5,0,0,1-3.8,3.8,3.32,3.32,0,0,1,3.82,3.59A3.37,3.37,0,0,1,281.61,70Z"/><path class="cls-22" d="M55.54,178S168.22,89.17,194,76.35c0,0,47.53-31.33,92.92-38.09,0,0,49-12.82,125.49,40.41,0,0-62.66-69.24-120.51-74.76,0,0-70-9.79-117.48,27.59,0,0,3.2-8.72,22.43-18.87,0,0-28.66,10.68-43.79,26.7,0,0,10.32-16.73,25.81-23.85,0,0-39,11-69.6,49.49,0,0,1.78-16.91,36.14-40.59,0,0-38.09,12.64-55,56.25,0,0,0-27.77,17.44-42.54,0,0-30.08,27.95-38.27,71.2,0,0,1.78-25.81,13.71-45.93,0,0-9.26,10-13.88,39,0,0,1.07-38.27,31-68.18,0,0-47,33.11-44.86,93.45,0,0-5.7-36,16.91-69.42A72.33,72.33,0,0,0,54.9,96.82s4.73-30.26,18.8-47.71c0,0-28.3,28.3-30.8,69.24,0,0-1.42-30.8,10.5-49,0,0-18.33,24-12.1,70.13,0,0-7.48-36.49,6.59-70.13,0,0-22.25,30.8-15,83.49,0,0-6.23-18.33-3-43.61,0,0-5.34,21.36,1.07,43.08,0,0-10.15-30.53-1.07-62,0,0-12.28,19.63-7.48,57.72,0,0-4.63-10.86-2.85-37.56,0,0-4.2,18.51-.41,34.53,0,0-7.14-24-1.58-45.93,0,0-11.54,31.33-3.88,55.72,0,0-5-7.65-4.81-31.51,0,0-3.56,21.72,6.59,42,0,0-6.23-6.76-9.08-24.56,0,0,1.25,26.35,9.61,39.34,0,0-8.37-5.7-12.28-26,0,0-.53,18,8.37,31,0,0,3.38,5.52,13.53,6.94C25.64,192.06,36.32,193,55.54,178Z"/><path class="cls-23" d="M270.87,180.65s-28.13-28.84-17.44-55.18c0,0,7-15.07,24.92-8.54,0,0,6.53,2.61,9,11.27,0,0,6.29-13.41,22.55-9.73,0,0,18.39,4.87,11.87,25.28,0,0-12.94,42.13-58.86,57.08,0,0-37.38,10.68-61.35,11.27,0,0-50.91,2.73-53.4,3.32,0,0-38.45,1.9-66.69,13.65,0,0-20.06,8.9-30.74,21.72,0,0,18.75-29.67,72.39-40.7,0,0,69.29-10.09,86-11.27S263.51,189,270.87,180.65Z"/><path class="cls-24" d="M44.17,269.8S59.74,256.62,71,255c0,0,7.48,20.47,30.26,31.77,0,0-21.63-14.6-22.16-30.8A60,60,0,0,0,107,284.66s-18.69-13.44-19.14-24.39c0,0-.27,3.74,11.57,14,0,0-9.26-13.35-9.26-18.69,0,0,7,19,29.28,30.62,0,0-16.29-11.48-19.85-24.56a86.64,86.64,0,0,0,11.57,13.62s-9-10.5-8.28-17.36c0,0,11.66,24.56,30.53,32.84,0,0-19.58-15.93-21-26.88,0,0,3.74,8.19,15.84,18.25,0,0-9.08-10.86-11-19.4a66.92,66.92,0,0,0,25.28,25.81S121.87,270.33,123.2,260a81.71,81.71,0,0,0,19.94,25.63s-13-14.77-13.8-24.74c0,0,11,22.7,30.62,32.84,0,0-15.13-9.88-17.8-21.89,0,0,1.42,5.7,13.08,15.66a25.35,25.35,0,0,1-6.94-16.29s7.74,19.58,21,27.59c0,0-13.53-10.24-13.62-25.81,0,0,6.94,13.71,9.17,15.13,0,0-7.21-10.24-6.23-16,0,0,7.74,15.13,20.2,23.59,0,0-13.88-13.88-14.69-22,0,0,4.63,7.39,7.39,9.61,0,0-8.54-12.46-8.37-16.38,0,0,10.06,15.58,21.89,26.17,0,0-13.44-15.58-13.53-19.4,0,0,6.76,6.5,12.82,11.39,0,0-4.54-4-5.87-9.35,0,0,15.4,16.38,25.37,22.16,0,0-19.22-16.91-20.83-22.34A93.27,93.27,0,0,0,193.42,282s-4.45-4.54-5.87-7.74c0,0,21.27,19.49,30,23.94,0,0-20.47-16-21.09-19,0,0,7.83,5.79,13.88,9.26,0,0-10.68-7.74-12.19-11.57,0,0,12.82,10.41,20.38,14.15,0,0-9.95-9.43-11.16-13.44a258,258,0,0,0,21.84,20.56s-17.71-16.91-19-21.27c0,0,14.24,15.31,20,19.31,0,0-11.3-12-13.08-16.38,0,0,22.61,19.31,34.71,23.41,0,0-26.52-18.07-27.59-22.78,0,0,15,12,21.18,15.22,0,0-14.77-11.21-16.64-15.58,0,0,24.48,16.55,33.82,18.69,0,0-28.84-16.38-31.06-22,0,0,23.41,14.6,31.86,16.55,0,0-38.45-22.43-42-33.47,0,0,33.11,29.73,63.46,40.76,0,0-21.18-11.57-24.21-14.69,0,0,1.87,1.34,8,2.23,0,0-12.55-7.3-14.69-10.5,0,0,12.82,7.48,19.49,9.88,0,0-5.79-2.49-8.1-5.25,0,0,20.56,9.79,28.13,11.93,0,0-20.56-11.39-21.89-13.08,0,0,.36.09,3.65,1.34s-8.37-5.79-9.61-6.76c0,0,14,7.3,20.83,9.43,0,0-24.39-14.6-27.24-19,0,0,34,19.49,49.49,19.94,0,0-35.6-11.84-44.5-28.93,0,0,31.83,27,57.47,23.65,0,0-31.69-8.07-39-17.21,0,0,15.55,8.54,31.92,8.78,0,0-27.53-8.54-40.35-22.19,0,0,36.79,24.56,71,19.58,0,0-29.67-2.85-47.82-17.44,0,0,33.35,15.78,58.74,9.61,0,0-29.07-.24-51.86-14.36,0,0,38.33,13.41,67.29,4.39,0,0-31,6.88-70.37-13.53,0,0,59.45,19.11,89.36-3.32,0,0-31.57,12.1-72.15,2,0,0,45,7.24,74.41-8.9,0,0-34.18,11.51-64.68,5,0,0,43.32.12,56.13-10.44,0,0-35.13,9.14-48.42,6.53,0,0,26.7-.24,39.52-15.07,0,0-40.11,15.31-69.9,8.19,0,0,46.52,3,70-15,0,0-22.19,11-43.79,10.8,0,0,22.19-5.22,31-19.11,0,0-14,12.34-34.18,13.65,0,0,26.58-9.38,35.84-22.78a72.74,72.74,0,0,1-30,14.48s10-8.31,11.51-15.07c0,0-10.56,12.1-33.82,17.21,0,0,24.68-3.92,34.41-24.8A57.91,57.91,0,0,1,313.7,202s10.32-3.8,17.44-9.73c0,0-15.55,8.31-26.82,9.14,0,0,20.06-4.15,28.6-16.26,0,0-20.53,13.29-34.65,13.77,0,0,23.62-22.67,26.35-50.44,0,0-17.92,42.37-52.57,55.18-6.8,2.3-14.08,4.49-21.81,6.48a311.86,311.86,0,0,1-39.55,7.52s-79.15,5.22-82.24,6.29c0,0-30.14,2.37-57.67,16.73C70.78,240.69,51.85,252,44.17,269.8Z"/></svg>